<svg width="98" height="98" viewBox="0 0 98 98" fill="none" xmlns="http://www.w3.org/2000/svg">
<path d="M98 49C98 38.4727 94.6096 28.2252 88.3308 19.7752C82.052 11.3252 73.2188 5.12205 63.1393 2.08432C53.0597 -0.953416 42.2698 -0.664172 32.3675 2.90922C22.4652 6.4826 13.977 13.1501 8.15995 21.9244L11.4272 24.0904C16.7788 16.0181 24.588 9.88399 33.6981 6.59648C42.8082 3.30896 52.7349 3.04286 62.0081 5.83757C71.2813 8.63229 79.4079 14.3392 85.1843 22.1132C90.9608 29.8872 94.08 39.3148 94.08 49H98Z" fill="#50B0FC"/>
<path d="M-4.28372e-06 49C-3.36339e-06 59.5274 3.39043 69.7748 9.6692 78.2248C15.948 86.6748 24.7812 92.878 34.8607 95.9157C44.9403 98.9534 55.7302 98.6642 65.6325 95.0908C75.5348 91.5174 84.023 84.8499 89.84 76.0756L86.5728 73.9096C81.2212 81.9819 73.412 88.116 64.3019 91.4035C55.1918 94.691 45.2651 94.9571 35.9919 92.1624C26.7187 89.3677 18.5921 83.6608 12.8157 75.8868C7.03919 68.1128 3.91999 58.6852 3.91999 49L-4.28372e-06 49Z" fill="#50B0FC"/>
<circle cx="49" cy="49" r="32" stroke="#50B0FC" stroke-width="4"/>
</svg>
