<?xml version="1.0" encoding="utf-8"?>
<!-- Generator: Adobe Illustrator 22.0.0, SVG Export Plug-In . SVG Version: 6.00 Build 0)  -->
<svg version="1.1" id="OBJECTS" xmlns="http://www.w3.org/2000/svg" xmlns:xlink="http://www.w3.org/1999/xlink" x="0px" y="0px"
	 viewBox="0 0 500 500" style="enable-background:new 0 0 500 500;" xml:space="preserve">
<style type="text/css">
	.st0{fill:#C9F7FB;}
	.st1{fill:#FFFFFF;}
	.st2{fill:#DDFCFF;}
</style>
<g>
	<g>
		<g>
			<path class="st0" d="M139.4,289.8l41.3,126.4c2.9,9,14,12.2,21.3,6.2l123.4-101.8c0,0-131.1-51.1-131.1-48.3
				C194.2,274.9,139.4,289.8,139.4,289.8z"/>
		</g>
		<g>
			<path class="st1" d="M464.9,46.9c-80.6,31.9-340.6,138.4-439,178.8c-13,5.3-12.2,24,1.2,28.2l112.4,35.8l41.2,126
				c1.7,5.1,5.8,8.3,10.5,9.2c3.8,0.7,9.4-102,9.4-102s118.1,87.6,174.2,129c13.8,10.2,33.5,2.5,36.8-14.3
				c16.7-86,58.4-301.1,72.7-374.7C486.2,51.9,475.4,42.8,464.9,46.9z"/>
		</g>
		<g>
			<path class="st2" d="M191.1,424.9c3.8,0.7,9.4-102,9.4-102l194.1-182.3c1.3-1.2-0.3-3.3-1.8-2.4L139.4,289.8l41.2,126
				C182.2,420.8,186.4,424.1,191.1,424.9z"/>
		</g>
	</g>
</g>
</svg>
