<svg width="26" height="26" viewBox="0 0 26 26" fill="none" xmlns="http://www.w3.org/2000/svg">
<g clip-path="url(#clip0)">
<path d="M12.9798 0C8.76274 0 5.33203 3.43071 5.33203 7.64774V18.3523C5.33203 22.5693 8.76274 26 12.9798 26C17.1968 26 20.6275 22.5693 20.6275 18.3523V7.64774C20.6275 3.43071 17.1968 0 12.9798 0ZM19.0676 18.3523C19.0676 21.709 16.3365 24.4401 12.9798 24.4401C9.62305 24.4401 6.89197 21.709 6.89197 18.3523V7.64774C6.89197 4.29102 9.62305 1.55994 12.9798 1.55994C16.3365 1.55994 19.0676 4.29102 19.0676 7.64774V18.3523Z" fill="white"/>
<path d="M12.9799 5.17218C12.549 5.17218 12.1999 5.5213 12.1999 5.95215V9.54214C12.1999 9.97279 12.549 10.3221 12.9799 10.3221C13.4105 10.3221 13.7599 9.97279 13.7599 9.54214V5.95215C13.7599 5.5213 13.4107 5.17218 12.9799 5.17218Z" fill="white"/>
</g>
<defs>
<clipPath id="clip0">
<rect width="26" height="26" fill="white"/>
</clipPath>
</defs>
</svg>
